<?xml version="1.0" standalone="no"?>
<!DOCTYPE svg PUBLIC "-//W3C//DTD SVG 20010904//EN"
 "http://www.w3.org/TR/2001/REC-SVG-20010904/DTD/svg10.dtd">
<svg version="1.0" xmlns="http://www.w3.org/2000/svg"
 width="313.000000pt" height="200.000000pt" viewBox="0 0 625.000000 180.000000"
 preserveAspectRatio="xMidYMid meet">

<g transform="translate(0.000000,250.000000) scale(0.200000,-0.200000)"
fill="#ffffff" stroke="none">
<path d="M103 1355 c-1 -52 2 -95 7 -95 5 0 18 14 30 30 18 25 28 30 65 30 42
0 43 -1 50 -37 3 -21 4 -125 1 -232 -4 -156 -8 -196 -20 -210 -31 -34 -19 -40
84 -43 55 -2 100 1 100 5 0 5 -9 20 -20 34 -19 24 -20 41 -20 254 l0 229 53 0
c48 0 55 -3 65 -25 6 -14 18 -25 26 -25 11 0 15 19 18 88 2 48 3 88 3 89 0 1
-21 -3 -47 -8 -51 -11 -354 -8 -378 4 -13 6 -15 -7 -17 -88z"/>
<path d="M580 1436 c0 -7 7 -21 15 -32 22 -29 22 -546 0 -564 -8 -7 -15 -21
-15 -32 0 -16 5 -19 23 -14 12 3 55 6 95 6 56 0 72 3 72 15 0 8 -9 19 -20 25
-17 9 -20 21 -20 91 0 76 1 80 26 89 56 22 66 15 112 -73 25 -48 42 -96 42
-114 l0 -33 80 0 c63 0 80 3 80 14 0 8 -5 18 -11 22 -6 3 -25 37 -43 73 -18
37 -43 85 -56 106 -17 27 -20 40 -12 43 26 8 70 53 82 81 7 19 11 61 9 110 -4
78 -5 81 -44 121 -50 51 -83 60 -230 60 -66 0 -135 4 -153 9 -24 7 -32 6 -32
-3z m334 -159 c18 -37 17 -84 -2 -115 -6 -8 -38 -13 -93 -15 l-84 -2 -3 88 -3
88 83 -3 83 -3 19 -38z"/>
<path d="M1235 1438 c-22 -5 -61 -8 -87 -5 -52 4 -55 2 -34 -28 19 -28 27
-548 9 -566 -31 -31 -15 -39 77 -39 90 0 103 6 75 34 -22 22 -22 551 0 580 16
21 19 37 8 35 -5 -1 -26 -5 -48 -11z"/>
<path d="M1978 1445 c-3 -3 -38 -6 -79 -7 l-74 -1 -34 -74 c-19 -41 -57 -113
-84 -160 l-50 -85 -24 44 c-67 117 -123 231 -123 251 0 21 -4 22 -90 22 -50 0
-90 -1 -90 -3 0 -2 8 -15 19 -28 17 -22 18 -42 15 -283 -2 -222 -5 -264 -20
-285 -20 -32 -16 -34 89 -38 66 -3 77 -1 77 13 0 9 -7 22 -15 29 -12 10 -15
41 -15 156 0 79 4 144 9 144 5 0 35 -48 67 -106 60 -110 90 -154 103 -154 5 0
38 53 75 118 108 189 102 189 100 12 -1 -125 -3 -153 -17 -168 -10 -10 -17
-26 -17 -35 0 -15 10 -16 93 -10 50 3 94 7 96 9 2 2 -4 15 -13 28 -14 22 -16
62 -16 287 0 246 1 262 20 286 11 14 20 30 20 34 0 10 -14 12 -22 4z"/>
<path d="M2040 1442 c0 -4 8 -19 18 -32 15 -22 17 -56 20 -273 3 -237 2 -250
-18 -289 -11 -22 -20 -42 -18 -44 2 -1 98 -4 213 -5 l210 -2 7 74 c3 41 5 75
3 77 -2 2 -17 -4 -34 -12 -22 -12 -59 -16 -136 -16 l-105 0 0 70 0 70 58 0
c31 0 73 -4 93 -9 l37 -8 5 71 c3 39 4 72 2 74 -1 1 -14 -2 -29 -8 -15 -5 -59
-10 -97 -10 l-69 0 0 69 0 68 53 7 c28 3 76 6 106 6 46 0 58 -4 80 -27 l26
-28 5 90 c3 50 5 90 5 91 0 0 -38 -3 -85 -7 -124 -11 -295 -10 -324 1 -14 5
-26 6 -26 2z"/>
<path d="M2517 1426 c4 -6 19 -27 34 -46 14 -19 43 -66 64 -105 20 -38 48 -85
62 -104 20 -26 24 -37 15 -50 -6 -9 -38 -63 -72 -121 -35 -58 -75 -124 -91
-147 -16 -23 -29 -45 -29 -50 0 -12 193 -8 197 4 2 6 -3 16 -12 23 -21 18 -20
23 27 103 50 86 50 85 55 69 3 -7 23 -39 44 -72 39 -58 40 -60 25 -89 -9 -17
-16 -32 -16 -36 0 -3 47 -5 105 -5 58 0 105 3 105 6 0 3 -13 22 -29 42 -16 20
-61 94 -99 163 l-69 126 64 114 c35 63 77 128 94 144 16 17 29 33 29 36 0 3
-45 5 -100 5 -55 -1 -100 -5 -100 -10 0 -5 8 -18 17 -28 15 -17 15 -20 -4 -46
-11 -15 -27 -42 -37 -59 -9 -18 -21 -33 -26 -33 -19 0 -72 120 -65 148 l5 27
-100 1 c-72 1 -98 -1 -93 -10z"/>
<path d="M2028 545 c4 -101 11 -124 35 -125 4 0 7 15 7 33 0 30 3 34 45 45 59
16 81 48 66 95 -14 41 -39 55 -107 59 l-51 3 5 -110z m95 44 c14 -22 2 -49
-23 -49 -16 0 -20 6 -20 36 0 28 4 35 16 32 9 -2 21 -10 27 -19z"/>
<path d="M2485 648 c-2 -7 -6 -37 -7 -66 l-3 -53 -45 60 c-67 89 -75 84 -75
-49 0 -107 1 -110 23 -110 20 0 22 5 22 55 0 61 11 70 30 26 16 -41 67 -88 80
-75 16 16 8 216 -7 222 -7 2 -15 -2 -18 -10z"/>
<path d="M2619 629 c-47 -51 -51 -119 -8 -172 17 -23 28 -27 69 -27 57 0 80
23 80 78 0 28 -5 35 -32 47 -43 18 -58 4 -36 -33 19 -32 10 -56 -18 -50 -32 6
-48 54 -35 99 10 34 16 39 41 39 16 0 32 -4 35 -10 10 -17 25 -11 25 9 0 24
-36 51 -68 51 -14 0 -36 -13 -53 -31z"/>
<path d="M510 578 c0 -40 -3 -90 -6 -110 l-6 -36 45 -7 c62 -10 107 1 107 26
0 19 -5 21 -65 23 l-30 1 3 88 3 87 -26 0 c-24 0 -25 -2 -25 -72z"/>
<path d="M732 558 c-19 -51 -36 -101 -39 -110 -7 -25 22 -23 47 2 31 31 100
20 100 -15 0 -8 9 -15 20 -15 11 0 20 6 20 13 -1 27 -87 212 -100 215 -11 2
-25 -25 -48 -90z m62 -14 c10 -25 7 -34 -9 -34 -9 0 -15 9 -15 25 0 28 15 34
24 9z"/>
<path d="M930 535 c0 -91 3 -115 14 -115 16 0 25 30 26 85 l1 40 17 -25 c36
-52 75 -90 93 -90 18 0 19 9 19 110 0 103 -1 110 -20 110 -18 0 -20 -7 -20
-61 0 -70 -4 -69 -61 7 -61 83 -69 76 -69 -61z"/>
<path d="M1165 541 l0 -111 48 0 c53 0 101 20 117 49 20 39 12 98 -19 133 -24
27 -36 32 -87 36 l-59 4 0 -111z m117 36 c4 -7 8 -27 8 -44 0 -26 -6 -36 -30
-48 -16 -8 -31 -15 -35 -15 -3 0 -5 30 -5 66 l0 66 27 -7 c15 -3 31 -12 35
-18z"/>
<path d="M1412 634 c-27 -19 -29 -64 -4 -86 9 -9 32 -23 50 -32 38 -19 45 -52
10 -42 -63 18 -78 18 -78 3 0 -36 84 -65 120 -40 56 40 42 99 -29 123 -41 13
-54 36 -27 46 8 3 24 0 35 -6 17 -9 22 -8 27 5 16 40 -59 61 -104 29z"/>
<path d="M1620 622 c-36 -37 -49 -102 -25 -138 19 -29 72 -64 97 -64 9 0 30
11 45 24 21 19 25 27 16 36 -8 9 -20 9 -47 -1 -44 -16 -64 -2 -72 53 -9 50 21
79 70 71 27 -4 36 -2 36 9 0 46 -77 52 -120 10z"/>
<path d="M1846 598 c-10 -29 -27 -71 -37 -92 -24 -51 -25 -86 -1 -86 9 0 22
10 27 23 15 34 64 35 104 1 18 -14 34 -24 36 -22 9 8 -52 174 -78 216 -16 24
-33 11 -51 -40z m54 -69 c0 -29 -13 -39 -25 -18 -10 15 4 61 15 54 6 -3 10
-19 10 -36z"/>
<path d="M2240 535 l0 -115 25 0 25 0 0 115 0 115 -25 0 -25 0 0 -115z"/>
<path d="M247 549 l-48 -16 49 -25 c46 -24 51 -24 83 -11 18 7 37 19 41 26 20
32 -59 49 -125 26z"/>
<path d="M2836 543 l-39 -4 33 -20 c26 -17 42 -19 81 -14 27 4 49 11 49 16 0
12 -45 30 -68 27 -9 -1 -35 -3 -56 -5z"/>
<path d="M850 220 c0 -66 3 -120 8 -120 19 1 31 18 34 50 3 31 6 35 35 38 31
3 32 2 35 -39 3 -43 13 -55 34 -41 8 5 10 41 7 120 -5 97 -8 112 -22 110 -11
-2 -17 -17 -19 -51 l-3 -48 -37 3 c-36 3 -37 4 -40 45 -2 24 -9 44 -18 47 -12
4 -14 -14 -14 -114z"/>
<path d="M1123 328 c-6 -7 -26 -59 -46 -115 l-36 -103 25 0 c14 0 24 6 24 14
0 17 22 26 61 26 22 0 29 -5 29 -19 0 -25 18 -37 33 -22 7 7 1 39 -22 110 -35
105 -51 131 -68 109z m27 -125 c0 -7 -7 -13 -15 -13 -15 0 -21 31 -8 43 8 8
23 -12 23 -30z"/>
<path d="M1265 308 c-3 -13 -5 -63 -3 -113 3 -82 5 -90 23 -90 17 0 20 8 23
58 l3 58 44 -61 c25 -33 49 -60 54 -60 9 0 21 96 21 176 0 47 -2 54 -20 54
-18 0 -20 -7 -20 -72 l0 -73 -30 54 c-50 91 -84 115 -95 69z"/>
<path d="M1485 220 l0 -112 52 4 c62 5 88 26 104 78 9 30 8 44 -5 72 -19 39
-43 53 -107 63 l-44 7 0 -112z m97 33 c34 -30 16 -93 -27 -93 -24 0 -25 3 -25
55 0 60 15 71 52 38z"/>
<path d="M1666 323 c-3 -3 10 -35 29 -70 25 -46 35 -76 35 -108 0 -63 25 -61
35 2 4 25 20 70 36 98 36 64 37 85 4 85 -19 0 -25 -5 -25 -23 0 -13 -6 -31
-13 -41 -12 -17 -15 -16 -43 16 -35 40 -49 50 -58 41z"/>
<path d="M643 312 c-19 -12 -38 -73 -38 -121 0 -36 5 -47 28 -64 24 -18 32
-20 67 -10 22 6 43 6 46 2 10 -17 26 -9 19 9 -4 9 -8 25 -9 35 -2 10 -13 24
-27 31 -21 10 -24 18 -24 66 0 51 -2 55 -25 58 -14 1 -30 -1 -37 -6z m57 -30
c0 -5 -11 -19 -25 -32 -28 -26 -33 -16 -9 18 15 22 34 30 34 14z m-2 -110 c3
-9 -3 -13 -19 -10 -12 1 -24 9 -27 16 -3 9 3 13 19 10 12 -1 24 -9 27 -16z"/>
<path d="M1880 209 c0 -83 3 -110 12 -107 15 5 25 40 27 88 l2 35 12 -35 c27
-75 32 -77 59 -31 28 47 38 44 38 -11 0 -31 3 -38 20 -38 19 0 20 7 20 105 0
97 -1 105 -19 105 -13 0 -29 -17 -48 -50 -15 -27 -31 -50 -34 -50 -3 0 -16 23
-29 50 -16 33 -30 50 -42 50 -16 0 -18 -10 -18 -111z"/>
<path d="M2181 302 c-14 -26 -56 -141 -65 -174 -9 -37 18 -38 46 -3 14 18 29
25 54 25 30 0 34 -3 34 -25 0 -18 5 -25 20 -25 28 0 26 42 -4 94 -13 23 -27
60 -31 84 -5 32 -11 42 -26 42 -10 0 -23 -8 -28 -18z m37 -96 c3 -12 -1 -17
-10 -14 -7 3 -15 13 -16 22 -3 12 1 17 10 14 7 -3 15 -13 16 -22z"/>
<path d="M2340 253 c0 -37 -3 -85 -6 -105 -6 -36 -5 -38 20 -38 25 0 26 2 26
52 l0 53 33 -40 c49 -60 67 -76 78 -70 5 4 8 50 7 111 -3 91 -5 104 -20 104
-14 0 -18 -9 -19 -37 -1 -74 -12 -79 -45 -21 -20 35 -37 54 -52 56 -21 3 -22
0 -22 -65z"/>
</g>
</svg>
