<?xml version="1.0" standalone="no"?>
<!DOCTYPE svg PUBLIC "-//W3C//DTD SVG 20010904//EN"
 "http://www.w3.org/TR/2001/REC-SVG-20010904/DTD/svg10.dtd">
<svg version="1.0" xmlns="http://www.w3.org/2000/svg"
 width="313.000000pt" height="250.000000pt" viewBox="0 0 313.000000 250.000000"
 preserveAspectRatio="xMidYMid meet">

<g transform="translate(0.000000,391.000000) scale(0.100000,-0.100000)"
fill="#ffffff" stroke="none">
<path d="M1416 3819 c-254 -33 -489 -149 -694 -343 -115 -108 -227 -288 -283
-452 -43 -128 -45 -124 57 -124 86 0 86 0 80 24 -7 30 15 49 77 66 40 11 65
29 141 104 51 50 121 126 156 169 34 42 65 77 69 77 3 0 19 11 35 25 35 30 46
31 94 5 38 -20 132 -101 132 -114 0 -4 13 -21 29 -38 l29 -31 7 31 c3 17 4 36
0 42 -3 5 3 24 15 40 22 31 21 59 -5 80 -26 21 -17 50 43 131 31 43 74 105 95
139 63 98 63 98 162 -37 47 -65 101 -138 120 -163 42 -54 45 -91 10 -110 -31
-16 -31 -20 -2 -74 l23 -43 89 83 c49 46 97 84 107 84 27 0 117 -60 158 -105
19 -21 66 -70 103 -109 37 -39 100 -115 139 -168 l72 -98 129 0 129 0 -7 38
c-52 284 -320 608 -636 767 -192 98 -431 135 -673 104z m-118 -160 c4 -34 -22
-57 -43 -39 -18 15 -19 42 -3 58 19 19 43 10 46 -19z m600 19 c15 -15 16 -55
1 -63 -19 -13 -69 16 -69 40 0 12 3 25 7 28 11 11 48 8 61 -5z m160 -60 c7 -7
12 -25 12 -40 0 -23 -4 -28 -25 -28 -29 0 -40 19 -31 55 7 27 25 32 44 13z
m-920 -37 c13 -37 -9 -49 -44 -26 -26 17 -31 40 -11 48 29 12 46 6 55 -22z
m-209 -105 c9 -11 9 -20 2 -34 -13 -25 -31 -32 -53 -20 -24 12 -22 34 4 52 28
20 32 20 47 2z m1359 -22 c2 -11 -6 -28 -16 -38 -18 -16 -21 -16 -36 -1 -17
17 -21 46 -9 59 15 15 58 1 61 -20z m-1504 -100 c24 -24 21 -56 -5 -52 -27 4
-44 30 -36 52 8 20 21 20 41 0z m1626 -44 c0 -25 -18 -36 -26 -16 -8 21 3 49
16 41 5 -3 10 -15 10 -25z m-1746 -152 c14 -23 -3 -53 -30 -53 -20 0 -31 33
-20 61 7 19 35 14 50 -8z m1871 2 c24 -27 13 -52 -22 -48 -23 2 -29 8 -31 36
-3 26 0 32 16 32 10 0 27 -9 37 -20z"/>
<path d="M1493 3517 c-40 -60 -70 -113 -67 -118 3 -5 23 -9 45 -9 21 0 39 -3
39 -7 0 -3 -18 -30 -41 -59 -22 -29 -40 -61 -39 -71 4 -32 1 -40 -34 -92 l-35
-51 80 0 c61 0 81 -3 85 -15 4 -8 2 -76 -2 -151 -9 -129 -8 -136 12 -155 26
-25 36 -24 62 4 21 22 22 33 22 171 l0 149 53 -7 c28 -4 69 -10 90 -13 21 -3
37 -1 37 4 0 6 -17 36 -38 69 -60 92 -122 201 -122 213 0 7 14 14 30 18 17 3
32 9 35 13 3 5 -128 211 -138 216 -1 0 -35 -49 -74 -109z"/>
<path d="M1027 3237 c-34 -34 -107 -109 -162 -166 -55 -56 -119 -114 -142
-128 -24 -14 -43 -31 -43 -38 0 -14 239 -225 255 -225 13 0 86 114 101 156 6
18 35 56 65 85 30 30 65 68 77 85 l22 32 -20 25 c-29 36 -25 64 10 82 16 8 36
15 45 15 8 0 15 6 15 14 0 21 -118 126 -141 126 -11 0 -47 -27 -82 -63z m111
22 c14 -22 10 -35 -6 -25 -12 7 -23 46 -13 46 3 0 12 -9 19 -21z"/>
<path d="M1945 3250 c-30 -29 -55 -56 -55 -60 0 -4 17 -15 38 -24 20 -9 48
-25 62 -36 l24 -18 -39 -44 c-35 -38 -37 -43 -20 -46 11 -2 35 -24 52 -48 l33
-44 -29 0 c-25 0 -74 -45 -330 -299 -264 -264 -352 -343 -367 -328 -2 2 48 55
112 118 140 139 259 261 307 314 19 22 81 81 136 130 55 50 101 97 101 106 0
9 -7 22 -15 29 -13 11 -22 8 -53 -21 -59 -54 -263 -250 -442 -425 -91 -88
-203 -191 -250 -229 -120 -97 -287 -254 -311 -291 -36 -58 -19 -139 37 -183
53 -42 94 -24 169 74 21 28 82 93 135 145 53 52 149 151 214 220 64 69 231
239 369 378 l252 254 45 -6 c60 -8 87 -30 136 -110 22 -37 49 -76 61 -87 l20
-20 -19 72 c-10 40 -14 77 -10 81 5 5 28 5 50 -1 50 -11 53 -2 22 58 -48 95
-304 376 -352 387 -23 5 -36 -2 -83 -46z m-665 -947 c0 -15 -112 -133 -126
-133 -27 0 -13 23 49 81 60 56 77 68 77 52z m-28 -111 c-29 -40 -52 -59 -52
-41 0 14 61 81 68 74 2 -2 -5 -17 -16 -33z m-218 -164 c11 -42 6 -75 -15 -102
-25 -32 -43 -33 -63 -4 -24 34 -19 66 13 99 35 35 57 37 65 7z"/>
<path d="M1860 3110 c0 -5 5 -10 11 -10 5 0 7 5 4 10 -3 6 -8 10 -11 10 -2 0
-4 -4 -4 -10z"/>
<path d="M1260 3074 c0 -8 5 -12 10 -9 6 4 8 11 5 16 -9 14 -15 11 -15 -7z"/>
<path d="M1323 3056 c6 -14 3 -16 -13 -11 -12 4 -20 2 -20 -5 0 -13 99 -111
159 -159 l36 -29 3 77 3 76 -77 30 c-43 17 -82 32 -87 34 -6 2 -7 -4 -4 -13z"/>
<path d="M1658 2935 c-2 -47 -1 -85 3 -85 3 0 39 35 81 79 l76 78 -61 7 c-103
11 -95 17 -99 -79z"/>
<path d="M1180 2952 c-19 -20 -44 -42 -55 -49 -19 -10 -11 -21 105 -138 69
-69 137 -135 152 -146 l26 -19 51 50 c28 28 51 54 51 59 0 11 -21 33 -172 178
-58 57 -110 103 -115 103 -4 0 -24 -17 -43 -38z m155 -159 c124 -120 146 -172
28 -65 -91 82 -123 116 -149 156 -30 48 2 23 121 -91z"/>
<path d="M54 2782 c3 -37 6 -134 6 -217 l0 -150 320 3 c331 3 360 0 360 -37 0
-28 -18 -31 -177 -31 l-146 0 7 -41 c23 -144 238 -451 401 -574 116 -87 280
-158 441 -190 271 -54 418 -52 644 7 136 35 208 68 331 150 124 82 195 151
285 274 88 122 112 163 154 263 49 119 51 117 -87 113 -64 -2 -141 -1 -170 3
-48 6 -53 9 -53 31 0 16 7 25 23 29 12 3 170 5 350 3 l327 -3 0 217 0 216 -37
-4 c-21 -2 -153 -6 -293 -9 -140 -3 -274 -8 -297 -11 l-43 -7 0 -71 0 -71 -79
-2 -79 -3 -38 40 c-22 22 -39 49 -39 59 -1 44 -44 63 -87 40 -25 -14 -232
-200 -265 -239 -21 -26 -22 -29 -6 -41 14 -12 16 -12 8 0 -5 10 -4 12 4 7 6
-4 9 -11 6 -16 -5 -8 14 -26 109 -104 47 -39 116 -81 116 -71 0 3 10 -3 22
-15 12 -11 26 -20 31 -20 5 0 7 -9 4 -20 -4 -15 11 -34 56 -77 148 -139 177
-179 177 -248 0 -75 -75 -174 -149 -196 -77 -23 -99 -9 -286 188 -93 98 -185
196 -206 217 l-37 39 2 -93 c2 -75 6 -95 20 -105 16 -12 16 -14 -2 -19 -24 -8
-37 -35 -23 -49 6 -6 35 -12 66 -15 57 -5 66 -16 30 -36 -10 -6 -41 -32 -68
-59 -26 -26 -53 -44 -59 -41 -7 4 -9 83 -7 233 4 204 2 230 -14 254 -22 35
-41 34 -66 -2 -16 -22 -21 -46 -23 -103 -1 -40 -3 -56 -5 -35 -2 20 -9 37 -15
37 -6 0 -8 12 -5 28 4 21 -30 -9 -159 -141 -91 -92 -162 -172 -159 -178 4 -5
2 -8 -3 -7 -6 2 -34 -23 -63 -55 -58 -62 -99 -80 -152 -66 -84 23 -153 129
-145 221 4 34 15 63 37 94 17 25 31 49 31 54 0 6 6 10 13 10 7 0 19 9 27 20 8
11 18 20 23 20 4 0 21 16 38 35 17 19 75 72 128 117 53 45 131 115 173 156
l77 75 -47 41 c-26 22 -80 72 -120 110 -45 43 -76 66 -80 59 -28 -44 -103
-144 -134 -177 -28 -32 -40 -39 -52 -31 -8 6 -75 67 -149 138 l-134 127 -264
0 c-145 0 -279 4 -298 10 l-34 9 7 -67z m398 -89 c28 -25 22 -35 -17 -27 -43
8 -44 -5 -2 -31 41 -26 50 -77 17 -95 -28 -15 -70 -9 -84 12 -14 23 -4 30 27
19 43 -17 45 8 4 42 -41 32 -44 43 -21 75 18 26 50 28 76 5z m2182 -60 c-1
-83 -13 -103 -59 -103 -39 0 -67 26 -44 41 8 5 18 9 22 9 4 0 5 27 1 59 l-6
59 28 5 c58 9 59 7 58 -70z m134 65 c23 -23 14 -40 -18 -33 -40 9 -38 -3 9
-49 44 -43 44 -54 2 -79 -35 -21 -76 -10 -86 23 -9 30 0 35 27 16 42 -30 48
-16 13 30 -19 25 -35 52 -35 59 0 36 62 59 88 33z m-2459 -25 c0 -16 -3 -22
-6 -15 -2 6 -16 12 -30 12 -32 0 -28 -34 5 -38 29 -4 28 -16 -3 -30 -14 -6
-25 -16 -25 -21 0 -14 32 -23 44 -11 17 17 26 11 26 -15 0 -23 -3 -25 -49 -25
-28 0 -52 3 -54 8 -2 4 -2 42 1 85 l4 77 44 0 c42 0 44 -2 43 -27z m321 13 c0
-8 -10 -16 -22 -18 -20 -3 -23 -9 -24 -48 -2 -83 -4 -90 -19 -90 -11 0 -15 11
-15 39 0 65 -10 99 -32 104 -39 11 -6 27 53 27 44 0 59 -4 59 -14z m2290 4 c0
-5 -4 -10 -10 -10 -5 0 -10 -33 -12 -72 -2 -57 -6 -73 -18 -73 -11 0 -16 15
-18 65 -2 36 -7 69 -13 75 -18 18 -9 25 31 25 22 0 40 -4 40 -10z m-2262 -486
c40 -28 24 -64 -29 -64 -15 0 -19 7 -19 33 0 50 11 57 48 31z m1867 -14 c0
-20 -6 -26 -28 -28 -32 -4 -46 20 -26 44 19 24 54 14 54 -16z m-1011 -209 c-4
-14 -7 -53 -6 -86 0 -51 -1 -55 -8 -25 -4 19 -8 30 -9 24 -1 -12 -58 -6 -67 7
-3 5 -16 9 -29 9 -53 0 -31 19 30 25 54 6 65 10 65 26 0 25 -15 32 -71 33 -26
1 -51 4 -54 8 -11 11 35 29 57 22 14 -4 18 -3 14 5 -4 6 1 14 11 17 10 3 29
12 43 19 24 14 25 13 28 -22 2 -20 0 -48 -4 -62z m-303 -251 c11 -6 19 -21 19
-35 0 -21 -5 -25 -30 -25 -26 0 -30 4 -30 28 0 42 9 49 41 32z m615 -28 c22
-14 34 -48 22 -60 -19 -19 -38 -14 -50 12 -17 38 0 67 28 48z"/>
<path d="M2576 2654 c-8 -22 4 -40 15 -23 11 18 11 39 0 39 -5 0 -12 -7 -15
-16z"/>
<path d="M2560 2565 c0 -8 7 -15 15 -15 8 0 15 7 15 15 0 8 -7 15 -15 15 -8 0
-15 -7 -15 -15z"/>
<path d="M1676 2434 l-58 -65 23 -27 c13 -14 93 -98 178 -186 85 -89 176 -191
204 -229 78 -107 129 -123 197 -59 40 39 46 57 40 122 -1 14 -9 35 -19 47 -26
35 -490 463 -501 463 -3 0 -33 -30 -64 -66z m87 -59 c52 -51 71 -85 48 -85
-11 0 -121 122 -121 135 0 15 22 0 73 -50z m189 -237 c12 -30 -5 -21 -56 31
-34 35 -47 54 -42 66 5 14 14 9 49 -30 23 -27 45 -56 49 -67z m212 -129 c41
-48 31 -99 -20 -99 -25 0 -38 14 -59 63 -13 32 -13 37 1 51 24 24 50 19 78
-15z"/>
</g>
</svg>
